<mxfile host="Electron" modified="2023-07-02T17:45:13.374Z" agent="Mozilla/5.0 (Windows NT 10.0; Win64; x64) AppleWebKit/537.36 (KHTML, like Gecko) draw.io/21.5.0 Chrome/112.0.5615.204 Electron/24.5.1 Safari/537.36" etag="M7f8OeYm3PVSvQ2ayTGE" version="21.5.0" type="device">
  <diagram id="Crcx2El_cxQW_zQhNYuJ" name="Страница 1">
    <mxGraphModel dx="1036" dy="1783" grid="1" gridSize="10" guides="1" tooltips="1" connect="1" arrows="1" fold="1" page="1" pageScale="1" pageWidth="827" pageHeight="1169" math="0" shadow="0">
      <root>
        <mxCell id="0" />
        <mxCell id="1" parent="0" />
        <mxCell id="4" value="" style="edgeStyle=none;html=1;" parent="1" source="2" target="3" edge="1">
          <mxGeometry relative="1" as="geometry" />
        </mxCell>
        <mxCell id="2" value="Старт" style="ellipse;whiteSpace=wrap;html=1;" parent="1" vertex="1">
          <mxGeometry x="340" y="-120" width="120" height="30" as="geometry" />
        </mxCell>
        <mxCell id="38" value="" style="edgeStyle=none;html=1;fontSize=14;fontColor=#FFFFFF;entryX=0.5;entryY=0;entryDx=0;entryDy=0;" parent="1" source="3" edge="1">
          <mxGeometry relative="1" as="geometry">
            <mxPoint x="400" y="200" as="targetPoint" />
          </mxGeometry>
        </mxCell>
        <mxCell id="3" value="Создаем одномерный массив из строк&amp;nbsp; array1" style="rounded=0;whiteSpace=wrap;html=1;" parent="1" vertex="1">
          <mxGeometry x="275" y="-20" width="250" height="80" as="geometry" />
        </mxCell>
        <mxCell id="12" value="" style="edgeStyle=none;html=1;fontSize=12;fontColor=#FFFFFF;" parent="1" source="7" target="9" edge="1">
          <mxGeometry relative="1" as="geometry" />
        </mxCell>
        <mxCell id="7" value="&lt;div style=&quot;font-family: consolas, &amp;quot;courier new&amp;quot;, monospace; line-height: 24px;&quot;&gt;&lt;div style=&quot;line-height: 24px;&quot;&gt;&lt;span style=&quot;background-color: rgb(239, 245, 252);&quot;&gt;&lt;font color=&quot;#3390ff&quot;&gt;Используя цикл For&lt;/font&gt;&lt;/span&gt;&lt;span style=&quot;color: rgb(51, 144, 255); background-color: rgb(239, 245, 252);&quot;&gt;&amp;nbsp;ищем и считаем элементы&amp;nbsp;&lt;/span&gt;&lt;/div&gt;&lt;div style=&quot;line-height: 24px;&quot;&gt;&lt;span style=&quot;background-color: rgb(239, 245, 252);&quot;&gt;&lt;font color=&quot;#3390ff&quot;&gt;длина которых меньше либо равна 3 символам. Реализуем метод ArrayParametr с возращаемым типом данных (int)&amp;nbsp;&amp;nbsp;&lt;/font&gt;&lt;/span&gt;&lt;/div&gt;&lt;/div&gt;" style="rounded=0;whiteSpace=wrap;html=1;" parent="1" vertex="1">
          <mxGeometry x="200" y="200" width="400" height="100" as="geometry" />
        </mxCell>
        <mxCell id="11" value="ДА" style="edgeStyle=none;html=1;fontSize=12;fontColor=#FFFFFF;" parent="1" source="9" target="10" edge="1">
          <mxGeometry relative="1" as="geometry">
            <Array as="points">
              <mxPoint x="400" y="530" />
            </Array>
          </mxGeometry>
        </mxCell>
        <mxCell id="20" style="edgeStyle=none;html=1;exitX=1;exitY=0.5;exitDx=0;exitDy=0;entryX=0.5;entryY=0;entryDx=0;entryDy=0;fontSize=12;fontColor=#FFFFFF;" parent="1" source="9" target="19" edge="1">
          <mxGeometry relative="1" as="geometry">
            <Array as="points">
              <mxPoint x="630" y="465" />
              <mxPoint x="630" y="750" />
              <mxPoint x="400" y="750" />
            </Array>
          </mxGeometry>
        </mxCell>
        <mxCell id="9" value="Условие пока&lt;br&gt;i &amp;lt; длина массива Array&amp;nbsp;" style="rhombus;whiteSpace=wrap;html=1;labelBackgroundColor=none;fontSize=12;fontColor=#FFFFFF;" parent="1" vertex="1">
          <mxGeometry x="250" y="430" width="300" height="70" as="geometry" />
        </mxCell>
        <mxCell id="14" value="Да" style="edgeStyle=none;html=1;fontSize=12;fontColor=#FFFFFF;" parent="1" source="10" target="13" edge="1">
          <mxGeometry relative="1" as="geometry" />
        </mxCell>
        <mxCell id="17" value="НЕТ" style="edgeStyle=none;html=1;fontSize=12;fontColor=#FFFFFF;" parent="1" source="10" target="15" edge="1">
          <mxGeometry relative="1" as="geometry" />
        </mxCell>
        <mxCell id="10" value="Array[ i ] &amp;lt;= length" style="rhombus;whiteSpace=wrap;html=1;labelBackgroundColor=none;fontSize=12;fontColor=#FFFFFF;" parent="1" vertex="1">
          <mxGeometry x="250" y="549.5" width="300" height="70" as="geometry" />
        </mxCell>
        <mxCell id="16" style="edgeStyle=none;html=1;exitX=0;exitY=0.5;exitDx=0;exitDy=0;entryX=0.5;entryY=1;entryDx=0;entryDy=0;fontSize=12;fontColor=#FFFFFF;" parent="1" source="13" target="15" edge="1">
          <mxGeometry relative="1" as="geometry">
            <Array as="points">
              <mxPoint x="150" y="700" />
            </Array>
          </mxGeometry>
        </mxCell>
        <mxCell id="13" value="result = result +1" style="rounded=0;whiteSpace=wrap;html=1;labelBackgroundColor=none;fontSize=12;fontColor=#FFFFFF;" parent="1" vertex="1">
          <mxGeometry x="340" y="670" width="120" height="60" as="geometry" />
        </mxCell>
        <mxCell id="18" style="edgeStyle=none;html=1;exitX=0.5;exitY=0;exitDx=0;exitDy=0;entryX=0;entryY=0.5;entryDx=0;entryDy=0;fontSize=12;fontColor=#FFFFFF;" parent="1" source="15" target="9" edge="1">
          <mxGeometry relative="1" as="geometry">
            <Array as="points">
              <mxPoint x="150" y="465" />
            </Array>
          </mxGeometry>
        </mxCell>
        <mxCell id="15" value="i = i+1" style="rounded=0;whiteSpace=wrap;html=1;labelBackgroundColor=none;fontSize=12;fontColor=#FFFFFF;" parent="1" vertex="1">
          <mxGeometry x="110" y="565" width="80" height="40" as="geometry" />
        </mxCell>
        <mxCell id="22" value="" style="edgeStyle=none;html=1;fontSize=12;fontColor=#FFFFFF;" parent="1" source="19" target="21" edge="1">
          <mxGeometry relative="1" as="geometry" />
        </mxCell>
        <mxCell id="19" value="&lt;div style=&quot;font-family: consolas, &amp;quot;courier new&amp;quot;, monospace; line-height: 24px;&quot;&gt;&lt;font color=&quot;#1f69c2&quot; style=&quot;font-size: 14px; background-color: rgb(215, 245, 255);&quot;&gt;Задаем новую переменную num1&lt;/font&gt;&lt;/div&gt;&lt;div style=&quot;font-family: consolas, &amp;quot;courier new&amp;quot;, monospace; line-height: 24px;&quot;&gt;&lt;font style=&quot;&quot; color=&quot;#1f69c2&quot;&gt;&lt;font style=&quot;font-size: 14px; background-color: rgb(215, 245, 255);&quot;&gt;в которую будем сохранять вычесленный элемент массива меньше либо равна 3 символа с помощью ArrayParametr&lt;/font&gt;&lt;/font&gt;&lt;/div&gt;" style="rounded=0;whiteSpace=wrap;html=1;labelBackgroundColor=none;fontSize=12;fontColor=#FFFFFF;" parent="1" vertex="1">
          <mxGeometry x="170" y="780" width="460" height="100" as="geometry" />
        </mxCell>
        <mxCell id="24" value="" style="edgeStyle=none;html=1;fontSize=14;fontColor=#FFFFFF;" parent="1" source="21" target="23" edge="1">
          <mxGeometry relative="1" as="geometry" />
        </mxCell>
        <mxCell id="21" value="Задаем новый массив строк , в который будем выводит найденые элементы." style="rounded=0;whiteSpace=wrap;html=1;labelBackgroundColor=none;fontSize=12;fontColor=#FFFFFF;" parent="1" vertex="1">
          <mxGeometry x="240" y="930" width="320" height="40" as="geometry" />
        </mxCell>
        <mxCell id="26" value="" style="edgeStyle=none;html=1;fontSize=14;fontColor=#FFFFFF;" parent="1" source="23" target="25" edge="1">
          <mxGeometry relative="1" as="geometry" />
        </mxCell>
        <mxCell id="35" style="edgeStyle=none;html=1;exitX=1;exitY=0.5;exitDx=0;exitDy=0;entryX=0.5;entryY=0;entryDx=0;entryDy=0;fontSize=14;fontColor=#FFFFFF;" parent="1" source="23" target="34" edge="1">
          <mxGeometry relative="1" as="geometry">
            <Array as="points">
              <mxPoint x="610" y="1040" />
              <mxPoint x="610" y="1380" />
              <mxPoint x="400" y="1380" />
            </Array>
          </mxGeometry>
        </mxCell>
        <mxCell id="23" value="&lt;div style=&quot;font-family: consolas, &amp;quot;courier new&amp;quot;, monospace; line-height: 24px;&quot;&gt;&lt;div style=&quot;line-height: 24px;&quot;&gt;&lt;span style=&quot;background-color: rgb(255, 255, 255);&quot;&gt;&lt;font color=&quot;#8f90ff&quot;&gt;Формируем новый массив строк (Метод NewArray)&lt;/font&gt;&lt;/span&gt;&lt;/div&gt;&lt;/div&gt;" style="rounded=0;whiteSpace=wrap;html=1;" parent="1" vertex="1">
          <mxGeometry x="310" y="1010" width="180" height="60" as="geometry" />
        </mxCell>
        <mxCell id="28" value="" style="edgeStyle=none;html=1;fontSize=14;fontColor=#FFFFFF;" parent="1" source="25" target="27" edge="1">
          <mxGeometry relative="1" as="geometry" />
        </mxCell>
        <mxCell id="30" value="" style="edgeStyle=none;html=1;fontSize=14;fontColor=#FFFFFF;" parent="1" source="25" target="29" edge="1">
          <mxGeometry relative="1" as="geometry" />
        </mxCell>
        <mxCell id="25" value="Array[ i ] &amp;lt;= length" style="rhombus;whiteSpace=wrap;html=1;labelBackgroundColor=none;fontSize=12;fontColor=#FFFFFF;" parent="1" vertex="1">
          <mxGeometry x="250" y="1110" width="300" height="70" as="geometry" />
        </mxCell>
        <mxCell id="33" style="edgeStyle=none;html=1;exitX=0.5;exitY=0;exitDx=0;exitDy=0;entryX=0;entryY=0.5;entryDx=0;entryDy=0;fontSize=14;fontColor=#FFFFFF;" parent="1" source="27" target="23" edge="1">
          <mxGeometry relative="1" as="geometry">
            <Array as="points">
              <mxPoint x="130" y="1040" />
            </Array>
          </mxGeometry>
        </mxCell>
        <mxCell id="27" value="i = i+1" style="rounded=0;whiteSpace=wrap;html=1;labelBackgroundColor=none;fontSize=12;fontColor=#FFFFFF;" parent="1" vertex="1">
          <mxGeometry x="90" y="1125" width="80" height="40" as="geometry" />
        </mxCell>
        <mxCell id="29" value="NewArray[temp] = array[i]" style="rounded=0;whiteSpace=wrap;html=1;labelBackgroundColor=none;fontSize=14;fontColor=#FFFFFF;" parent="1" vertex="1">
          <mxGeometry x="265" y="1220" width="270" height="60" as="geometry" />
        </mxCell>
        <mxCell id="32" style="edgeStyle=none;html=1;exitX=0;exitY=0.5;exitDx=0;exitDy=0;entryX=0.5;entryY=1;entryDx=0;entryDy=0;fontSize=14;fontColor=#FFFFFF;" parent="1" source="31" target="27" edge="1">
          <mxGeometry relative="1" as="geometry">
            <Array as="points">
              <mxPoint x="130" y="1340" />
            </Array>
          </mxGeometry>
        </mxCell>
        <mxCell id="31" value="&lt;span&gt;temp =&amp;nbsp;&lt;/span&gt;temp + 1" style="rounded=0;whiteSpace=wrap;html=1;labelBackgroundColor=none;fontSize=14;fontColor=#FFFFFF;" parent="1" vertex="1">
          <mxGeometry x="340" y="1320" width="120" height="40" as="geometry" />
        </mxCell>
        <mxCell id="34" value="Печать" style="shape=document;whiteSpace=wrap;html=1;boundedLbl=1;labelBackgroundColor=none;fontSize=14;fontColor=#FFFFFF;" parent="1" vertex="1">
          <mxGeometry x="340" y="1410" width="120" height="80" as="geometry" />
        </mxCell>
      </root>
    </mxGraphModel>
  </diagram>
</mxfile>
